<svg width="10" height="10" viewBox="0 0 10 10" fill="none" xmlns="http://www.w3.org/2000/svg">
<path d="M4.6572 0.827959C4.6572 0.668352 4.82962 0.508746 5.17446 0.34914C5.53746 0.189533 5.90045 0.083129 6.26344 0.0299265C6.62643 -0.0232759 6.78978 -0.00554213 6.75348 0.083128L4.87499 4.23289C4.85684 4.28609 4.8024 4.3127 4.71165 4.3127C4.63905 4.3127 4.60275 4.28609 4.60275 4.23289L4.6572 0.827959ZM0.682427 3.62107C0.464631 3.55013 0.355733 3.17772 0.355733 2.50382C0.355733 2.20235 0.382957 1.93634 0.437407 1.70579C0.491855 1.45752 0.546304 1.35998 0.600753 1.41318L4.08548 4.4723C4.13993 4.49004 4.14901 4.54324 4.11271 4.63191C4.07641 4.70284 4.04011 4.72945 4.00381 4.71171L0.682427 3.62107ZM5.28336 4.92452C5.24706 4.92452 5.21076 4.88905 5.17446 4.81812C5.15631 4.72945 5.16539 4.67624 5.20169 4.65851L8.5503 3.64767C8.71364 3.59447 8.92237 3.70974 9.17646 3.99348C9.4487 4.27723 9.6665 4.57871 9.82985 4.89792C10.0113 5.21713 10.0476 5.37674 9.93875 5.37674L5.28336 4.92452ZM2.17977 8.11665C2.12532 8.18758 2.00735 8.22305 1.82585 8.22305C1.60806 8.22305 1.33581 8.17872 1.00912 8.09005C0.700576 7.98364 0.437407 7.87724 0.219611 7.77083C0.0199646 7.64669 -0.0435592 7.56689 0.0290394 7.53142L4.05826 5.24373L4.11271 5.21713C4.14901 5.21713 4.18531 5.24373 4.22161 5.29694C4.27606 5.35014 4.29421 5.3856 4.27606 5.40334L2.17977 8.11665ZM4.79332 5.50974C4.77517 5.47428 4.8024 5.42994 4.87499 5.37674C4.94759 5.3058 4.99297 5.28807 5.01112 5.32354L7.05295 8.14325C7.1437 8.26739 7.08925 8.49793 6.8896 8.83488C6.68996 9.17182 6.45401 9.4733 6.18177 9.73931C5.92767 9.98759 5.79155 10.0585 5.7734 9.95212L4.79332 5.50974Z" fill="#E3C272"/>
</svg>
