<svg width="50" height="50" viewBox="0 0 50 50" fill="none" xmlns="http://www.w3.org/2000/svg">
<g clip-path="url(#clip0_85_6448)">
<path d="M25 50C38.8071 50 50 38.8071 50 25C50 11.1929 38.8071 0 25 0C11.1929 0 0 11.1929 0 25C0 38.8071 11.1929 50 25 50Z" fill="#543D2F"/>
<path d="M32.9232 16.555L15.2041 23.4232C14.4911 23.743 14.25 24.3835 15.0319 24.7311L19.5775 26.1832L30.5685 19.3554C31.1686 18.9268 31.783 19.0411 31.2543 19.5126L21.8146 28.1039L21.5181 31.7396C21.7927 32.301 22.2956 32.3036 22.6164 32.0246L25.2281 29.5406L29.7009 32.9074C30.7397 33.5255 31.305 33.1266 31.5285 31.9935L34.4623 18.0298C34.767 16.6351 34.2475 16.0205 32.9232 16.555Z" fill="#FEFEFE"/>
</g>
<defs>
<clipPath id="clip0_85_6448">
<rect width="50" height="50" fill="white"/>
</clipPath>
</defs>
</svg>
