<svg width="50" height="50" viewBox="0 0 50 50" fill="none" xmlns="http://www.w3.org/2000/svg">
<g clip-path="url(#clip0_85_6451)">
<path d="M25 50C38.8071 50 50 38.8071 50 25C50 11.1929 38.8071 0 25 0C11.1929 0 0 11.1929 0 25C0 38.8071 11.1929 50 25 50Z" fill="#543D2F"/>
<path fill-rule="evenodd" clip-rule="evenodd" d="M36.45 18.948C36.616 18.402 36.45 18 35.655 18H33.03C32.362 18 32.054 18.347 31.887 18.73C31.887 18.73 30.552 21.926 28.661 24.002C28.049 24.604 27.771 24.795 27.437 24.795C27.27 24.795 27.019 24.604 27.019 24.057V18.948C27.019 18.292 26.835 18 26.279 18H22.151C21.734 18 21.483 18.304 21.483 18.593C21.483 19.214 22.429 19.358 22.526 21.106V24.904C22.526 25.737 22.373 25.888 22.039 25.888C21.149 25.888 18.984 22.677 17.699 19.003C17.45 18.288 17.198 18 16.527 18H13.9C13.15 18 13 18.347 13 18.73C13 19.412 13.89 22.8 17.145 27.281C19.315 30.341 22.37 32 25.153 32C26.822 32 27.028 31.632 27.028 30.997V28.684C27.028 27.947 27.186 27.8 27.715 27.8C28.105 27.8 28.772 27.992 30.33 29.467C32.11 31.216 32.403 32 33.405 32H36.03C36.78 32 37.156 31.632 36.94 30.904C36.702 30.18 35.852 29.129 34.725 27.882C34.113 27.172 33.195 26.407 32.916 26.024C32.527 25.533 32.638 25.314 32.916 24.877C32.916 24.877 36.117 20.451 36.45 18.948Z" fill="white"/>
</g>
<defs>
<clipPath id="clip0_85_6451">
<rect width="50" height="50" fill="white"/>
</clipPath>
</defs>
</svg>
