<svg width="50" height="50" viewBox="0 0 50 50" fill="none" xmlns="http://www.w3.org/2000/svg">
<g clip-path="url(#clip0_85_6445)">
<path d="M25 50C38.8071 50 50 38.8071 50 25C50 11.1929 38.8071 0 25 0C11.1929 0 0 11.1929 0 25C0 38.8071 11.1929 50 25 50Z" fill="#543D2F"/>
<path d="M14.5511 34.5454L15.9645 29.3516C15.0332 27.7551 14.5439 25.9393 14.5469 24.0909C14.5469 18.3168 19.2274 13.6364 25.0014 13.6364C30.7755 13.6364 35.456 18.3168 35.456 24.0909C35.456 29.8649 30.7755 34.5454 25.0014 34.5454C23.1539 34.5484 21.3389 34.0594 19.7428 33.1288L14.5511 34.5454ZM21.2284 19.1856C21.0934 19.194 20.9614 19.2295 20.8405 19.2902C20.7272 19.3544 20.6236 19.4347 20.5332 19.5285C20.4077 19.6466 20.3366 19.7491 20.2603 19.8484C19.8739 20.3513 19.6661 20.9685 19.6696 21.6027C19.6717 22.115 19.8055 22.6136 20.0146 23.0799C20.4423 24.0229 21.1458 25.0214 22.0753 25.9465C22.299 26.1693 22.5174 26.393 22.7527 26.601C23.9063 27.6166 25.2808 28.3491 26.7673 28.74L27.3621 28.831C27.5555 28.8414 27.7489 28.8268 27.9433 28.8174C28.2478 28.8017 28.5452 28.7193 28.8143 28.5759C28.9512 28.5054 29.0847 28.4286 29.2146 28.3459C29.2146 28.3459 29.2596 28.3166 29.3453 28.2518C29.4864 28.1473 29.5733 28.073 29.6903 27.9507C29.7771 27.8608 29.8523 27.7552 29.9099 27.635C29.9914 27.4645 30.073 27.1394 30.1064 26.8686C30.1315 26.6616 30.1242 26.5487 30.1211 26.4787C30.1169 26.3668 30.0238 26.2508 29.9224 26.2016L29.314 25.9288C29.314 25.9288 28.4044 25.5325 27.8493 25.2795C27.7907 25.2541 27.728 25.2395 27.6643 25.2367C27.5927 25.2294 27.5204 25.2374 27.4523 25.2604C27.3841 25.2832 27.3216 25.3204 27.2691 25.3694V25.3674C27.2638 25.3674 27.1938 25.427 26.4379 26.3428C26.3945 26.4011 26.3347 26.4452 26.2663 26.4694C26.1977 26.4935 26.1235 26.4968 26.0532 26.4787C25.9851 26.4605 25.9183 26.4374 25.8535 26.4097C25.7239 26.3554 25.6789 26.3344 25.5901 26.2957L25.5848 26.2936C24.9867 26.0325 24.433 25.6798 23.9434 25.2482C23.8117 25.1332 23.6894 25.0077 23.564 24.8864C23.1526 24.4926 22.7942 24.047 22.4976 23.5608L22.4359 23.4615C22.3916 23.3948 22.3558 23.3228 22.3293 23.2472C22.2895 23.0935 22.3931 22.9702 22.3931 22.9702C22.3931 22.9702 22.6471 22.6921 22.7653 22.5415C22.8636 22.4164 22.9553 22.2863 23.0402 22.1515C23.1635 21.9529 23.2023 21.7491 23.1374 21.5912C22.8447 20.8761 22.5415 20.1642 22.23 19.4574C22.1683 19.3174 21.9853 19.217 21.8191 19.1971C21.7626 19.1908 21.7062 19.1845 21.6497 19.1804C21.5093 19.1734 21.3686 19.1748 21.2284 19.1845V19.1856Z" fill="#FEFEFE"/>
</g>
<defs>
<clipPath id="clip0_85_6445">
<rect width="50" height="50" fill="white"/>
</clipPath>
</defs>
</svg>
