<svg width="50" height="50" viewBox="0 0 50 50" fill="none" xmlns="http://www.w3.org/2000/svg">
<g clip-path="url(#clip0_85_6454)">
<path d="M25 50C38.8071 50 50 38.8071 50 25C50 11.1929 38.8071 0 25 0C11.1929 0 0 11.1929 0 25C0 38.8071 11.1929 50 25 50Z" fill="#543D2F"/>
<path fill-rule="evenodd" clip-rule="evenodd" d="M24.9974 16.333C25.9236 16.333 26.8737 16.3568 27.7946 16.3958L28.8822 16.4478L29.9233 16.5096L30.8983 16.5757L31.7888 16.645C32.7552 16.719 33.6645 17.1314 34.3569 17.8096C35.0492 18.4879 35.4802 19.3886 35.574 20.3533L35.6173 20.8137L35.6986 21.7995C35.7744 22.8211 35.8307 23.9348 35.8307 24.9997C35.8307 26.0646 35.7744 27.1783 35.6986 28.1998L35.6173 29.1857C35.6032 29.3438 35.5891 29.4966 35.574 29.6461C35.4802 30.6109 35.049 31.5118 34.3565 32.19C33.6639 32.8683 32.7543 33.2806 31.7877 33.3543L30.8994 33.4226L29.9244 33.4898L28.8822 33.5515L27.7946 33.6035C26.8627 33.644 25.9301 33.665 24.9974 33.6663C24.0647 33.665 23.1321 33.644 22.2002 33.6035L21.1126 33.5515L20.0715 33.4898L19.0965 33.4226L18.206 33.3543C17.2396 33.2804 16.3302 32.868 15.6379 32.1897C14.9456 31.5114 14.5146 30.6108 14.4208 29.6461L14.3775 29.1857L14.2962 28.1998C14.2134 27.1351 14.1693 26.0676 14.1641 24.9997C14.1641 23.9348 14.2204 22.8211 14.2962 21.7995L14.3775 20.8137C14.3916 20.6555 14.4056 20.5028 14.4208 20.3533C14.5146 19.3888 14.9454 18.4882 15.6375 17.81C16.3296 17.1317 17.2387 16.7192 18.2049 16.645L19.0943 16.5757L20.0693 16.5096L21.1115 16.4478L22.1991 16.3958C23.1314 16.3554 24.0643 16.3344 24.9974 16.333ZM22.8307 22.3726V27.6268C22.8307 28.1273 23.3724 28.4393 23.8057 28.1901L28.3557 25.563C28.4547 25.506 28.537 25.4239 28.5942 25.325C28.6513 25.2261 28.6815 25.1139 28.6815 24.9997C28.6815 24.8854 28.6513 24.7732 28.5942 24.6743C28.537 24.5754 28.4547 24.4933 28.3557 24.4363L23.8057 21.8103C23.7069 21.7533 23.5948 21.7232 23.4806 21.7233C23.3665 21.7233 23.2544 21.7533 23.1555 21.8104C23.0567 21.8675 22.9747 21.9497 22.9177 22.0485C22.8606 22.1474 22.8307 22.2595 22.8307 22.3737V22.3726Z" fill="white"/>
</g>
<defs>
<clipPath id="clip0_85_6454">
<rect width="50" height="50" fill="white"/>
</clipPath>
</defs>
</svg>
