<svg width="120" height="88" viewBox="0 0 120 88" fill="none" xmlns="http://www.w3.org/2000/svg">
<path fill-rule="evenodd" clip-rule="evenodd" d="M25.8171 27.2633L25.7917 27.1492L25.6776 27.1239C25.5171 27.0858 25.3649 27.0605 25.234 27.0478C25.0945 27.0351 24.9593 27.0436 24.8283 27.0689C24.6635 27.1027 24.5325 27.183 24.4354 27.314C24.3931 27.3943 24.3551 27.4788 24.334 27.5591C24.3002 27.652 24.2917 27.7619 24.2959 27.8971C24.3002 28.0239 24.3382 28.1718 24.4142 28.3365C24.4692 28.4422 24.5537 28.5309 24.6762 28.5985C24.7734 28.645 24.9086 28.6661 25.0776 28.6661C25.2382 28.6661 25.4368 28.6281 25.6945 28.552L25.7621 28.5309L25.8002 28.4675C25.8466 28.3873 25.8804 28.2816 25.8973 28.1464C25.9142 28.0408 25.9142 27.914 25.91 27.7746C25.9058 27.6351 25.8762 27.4704 25.8297 27.2506L25.8171 27.2633Z" fill="#F7F6F2"/>
<path fill-rule="evenodd" clip-rule="evenodd" d="M13.8795 34.5184V37.5691C13.4232 37.7085 12.9795 37.8057 12.5612 37.8733C12.3077 37.9114 12.0499 37.9283 11.7964 37.9283C11.6696 37.9283 11.5386 37.9283 11.4034 37.9114C11.057 37.886 10.7992 37.7761 10.626 37.5902C10.5288 37.4635 10.4612 37.324 10.4063 37.1719C10.3513 37.0494 10.326 36.9057 10.3133 36.7409C10.3006 36.6015 10.3344 36.4409 10.3978 36.2761C10.6386 36.1029 10.9429 35.917 11.302 35.7184C11.6147 35.5409 12.0161 35.3423 12.4809 35.1184C12.8865 34.9198 13.3555 34.7212 13.8753 34.5142V34.5184H13.8795ZM15.0203 31.9114C14.864 31.6747 14.6781 31.4761 14.4499 31.3198C14.2302 31.1677 13.9851 31.0536 13.7189 30.9649C13.4612 30.8888 13.1992 30.8297 12.9541 30.7916C12.3541 30.7114 11.6865 30.7198 10.9386 30.8297C10.7992 30.855 10.6724 30.8888 10.5584 30.9353C10.3386 31.0198 10.2964 31.1592 10.2964 31.2564V31.379L10.4105 31.4254C10.495 31.4635 10.5837 31.4804 10.6724 31.4804C10.6978 31.4804 10.7316 31.4804 10.7316 31.4804C10.795 31.4804 10.8584 31.4677 10.926 31.4423C11.3063 31.4001 11.6443 31.4001 11.9274 31.4423C12.2232 31.4846 12.4809 31.5564 12.6922 31.6409C12.9077 31.7254 13.0767 31.8353 13.2161 31.9578C13.3682 32.0846 13.4781 32.2198 13.5584 32.3592C13.7401 32.655 13.8499 32.993 13.8753 33.3691C13.064 33.6057 12.3626 33.8423 11.7879 34.0832C11.1753 34.3409 10.6767 34.5776 10.3006 34.7846C9.84005 35.0423 9.46822 35.2832 9.1809 35.524L9.14287 35.5578L9.12174 35.6001C8.98653 35.9254 8.9147 36.2508 8.90625 36.5423C8.90625 36.5888 8.90625 36.6353 8.90625 36.6776V36.7029C8.90625 36.9226 8.91893 37.117 8.9316 37.286C8.96963 37.548 9.03301 37.7846 9.11752 38.0001L9.13442 38.0339C9.37104 38.3973 9.70907 38.6508 10.1358 38.7902C10.5203 38.9128 10.9471 38.9761 11.4034 38.9761H11.4668C11.9401 38.9719 12.4175 38.9128 12.8865 38.8029C13.2457 38.7226 13.5795 38.6297 13.8795 38.5452V38.7395H15.333V32.7649C15.2781 32.4311 15.1724 32.148 15.0203 31.9071V31.9114Z" fill="#F7F6F2"/>
<path fill-rule="evenodd" clip-rule="evenodd" d="M22.195 34.6069L22.1105 34.5815C21.8316 34.497 21.5105 34.4083 21.1556 34.3195C20.8513 34.235 20.4795 34.1379 20.0401 34.0238C19.626 33.9224 19.1612 33.804 18.6415 33.6857C18.5865 33.5801 18.5401 33.4533 18.5063 33.3308C18.4725 33.1914 18.4598 33.0181 18.4598 32.8195C18.4598 32.6379 18.4978 32.4224 18.5823 32.1857C18.6668 32.0632 18.8189 31.9533 19.0344 31.8688C19.2372 31.7843 19.5288 31.7252 19.8922 31.6871C20.264 31.6533 20.7626 31.6871 21.3795 31.7717C21.5443 31.797 21.6922 31.8139 21.8189 31.8139C21.8612 31.8139 21.8992 31.8139 21.9203 31.8139C22.0809 31.8139 22.2034 31.7801 22.2922 31.7167C22.3556 31.6745 22.3978 31.6026 22.4063 31.5308C22.4189 31.3914 22.3133 31.29 22.2246 31.2097L22.1992 31.1759L22.1612 31.1632C21.464 30.9266 20.7879 30.7787 20.1626 30.7195C19.8964 30.6942 19.6217 30.6857 19.3429 30.7026C19.0513 30.7195 18.7725 30.766 18.5232 30.8421C18.257 30.9224 18.0077 31.0449 17.7922 31.2012C17.5598 31.3618 17.3739 31.5857 17.2217 31.8815C17.1288 32.1266 17.0823 32.4055 17.0696 32.7055C17.057 32.959 17.0823 33.2421 17.133 33.559C17.1922 33.8928 17.3316 34.2224 17.5387 34.5604L17.5725 34.6153L17.6316 34.6364C17.9274 34.7421 18.257 34.8562 18.6246 34.9745C18.9288 35.0674 19.3006 35.1773 19.7189 35.2914C20.1161 35.4055 20.5598 35.5111 21.033 35.6167C21.1133 35.7393 21.1851 35.8829 21.2274 36.0519C21.2823 36.2125 21.3119 36.4069 21.3203 36.6308C21.333 36.8463 21.295 37.0871 21.2189 37.3238C21.0964 37.5773 20.9189 37.7548 20.657 37.8688C20.4415 37.9702 20.133 38.0083 19.7443 37.9871C19.3471 37.966 18.8274 37.7886 18.1851 37.4632C18.126 37.4379 18.071 37.404 18.0034 37.3449C17.957 37.3111 17.902 37.2773 17.8598 37.2393C17.8133 37.1928 17.7626 37.1421 17.7203 37.0871L17.695 37.0618C17.6189 37.0026 17.5513 36.9857 17.5006 36.9857C17.3865 36.9857 17.2851 37.0491 17.2006 37.1801C17.1077 37.3069 17.0612 37.5266 17.3063 37.835L17.3274 37.8562C17.6823 38.1731 18.0837 38.435 18.5189 38.6294C18.7006 38.7139 18.9119 38.7857 19.1358 38.8491C19.3598 38.9083 19.6091 38.9463 19.8668 38.9548C19.9302 38.9548 19.9894 38.9548 20.0527 38.9548C20.2513 38.9548 20.4541 38.9421 20.657 38.9125C20.9401 38.8745 21.2401 38.7942 21.5485 38.6717L21.5739 38.6548C21.933 38.4393 22.2119 38.1393 22.3978 37.7717C22.5626 37.4548 22.6556 37.0407 22.6725 36.5379C22.6936 36.0393 22.5457 35.4055 22.2288 34.666L22.195 34.5857V34.6069Z" fill="#F7F6F2"/>
<path fill-rule="evenodd" clip-rule="evenodd" d="M25.1077 31.0535C24.9133 31.1169 24.7358 31.1507 24.5837 31.1592L24.4062 31.1719V38.7395H25.8386V30.1958L25.4922 30.7578C25.3992 30.9057 25.2682 31.0071 25.1077 31.0535Z" fill="#F7F6F2"/>
<path fill-rule="evenodd" clip-rule="evenodd" d="M32.3955 34.5184V37.5691C31.9392 37.7085 31.4955 37.8057 31.0815 37.8733C30.8279 37.9114 30.5702 37.9283 30.3167 37.9283C30.1899 37.9283 30.0547 37.9283 29.9237 37.9114C29.5772 37.886 29.311 37.7761 29.1463 37.5902C29.0491 37.4635 28.973 37.324 28.9223 37.1719C28.8674 37.0494 28.842 36.9057 28.8293 36.7409C28.8167 36.6015 28.8505 36.4409 28.9139 36.2761C29.1547 36.1029 29.4589 35.917 29.8181 35.7184C30.1308 35.5452 30.5195 35.3423 30.997 35.1184C31.3984 34.9198 31.8716 34.717 32.3871 34.5142L32.3955 34.5184ZM33.5364 31.9114C33.3801 31.6747 33.1941 31.4761 32.966 31.3198C32.7463 31.1677 32.5012 31.0536 32.235 30.9649C31.9772 30.8888 31.7153 30.8297 31.4617 30.7916C30.8617 30.7114 30.1941 30.7198 29.4462 30.8297C29.3068 30.855 29.1801 30.8888 29.066 30.9353C28.8463 31.0198 28.804 31.1592 28.804 31.2564V31.379L28.9181 31.4254C29.0026 31.4635 29.0913 31.4804 29.1758 31.4804C29.2096 31.4804 29.235 31.4804 29.2392 31.4804C29.3026 31.4804 29.366 31.4677 29.4336 31.4423C29.8139 31.4001 30.1519 31.4001 30.435 31.4423C30.735 31.4846 30.9927 31.5564 31.1998 31.6409C31.4153 31.7254 31.5843 31.8353 31.7237 31.9578C31.8674 32.0846 31.9815 32.2198 32.066 32.3592C32.2434 32.655 32.3575 32.993 32.3829 33.3691C31.5716 33.6057 30.8702 33.8423 30.2955 34.0832C29.6829 34.3409 29.1843 34.5776 28.804 34.7846C28.3434 35.0423 27.9801 35.2832 27.6843 35.524L27.6505 35.5578L27.6294 35.6001C27.4899 35.9254 27.4223 36.2508 27.4096 36.5423C27.4054 36.8381 27.4096 37.079 27.435 37.286C27.473 37.5438 27.5364 37.7846 27.6209 38.0001L27.6378 38.0339C27.8744 38.3973 28.2082 38.6508 28.635 38.7902C29.0195 38.9128 29.4463 38.9761 29.9026 38.9761H29.966C30.4392 38.9719 30.9167 38.9128 31.3857 38.8029C31.7448 38.7226 32.0786 38.6297 32.3786 38.5452V38.7395H33.8322V32.7649C33.7772 32.4311 33.6758 32.148 33.5195 31.9071L33.5364 31.9114Z" fill="#F7F6F2"/>
<path fill-rule="evenodd" clip-rule="evenodd" d="M45.9293 35.3294C45.9166 35.6885 45.887 36.0054 45.8279 36.2801C45.7645 36.5759 45.6715 36.859 45.5617 37.1167C45.1898 37.4167 44.7842 37.6026 44.3532 37.6745C43.8969 37.7505 43.4701 37.7674 43.0941 37.7336C42.6884 37.6914 42.2701 37.6069 41.8559 37.4716V32.3928C42.7898 32.7688 43.5293 33.073 44.0659 33.3097C44.6236 33.5547 45.0462 33.7618 45.3208 33.9139C45.6377 34.0956 45.7518 34.1928 45.7941 34.2308C45.8955 34.6238 45.9462 34.9914 45.9335 35.3336V35.3294H45.9293ZM47.2011 33.859C47.1546 33.597 47.1081 33.4956 47.0574 33.4364C46.918 33.2336 46.6434 33.0223 46.2039 32.7857C45.8448 32.5914 45.325 32.3632 44.611 32.0716C43.9391 31.8054 43.0138 31.4928 41.8559 31.1547V24.9097L41.5094 25.4801C41.408 25.6449 41.2855 25.7421 41.1334 25.7716C40.9306 25.8139 40.7531 25.8392 40.5925 25.8646L40.4277 25.8899V38.7392H41.8644V38.4561C42.3631 38.6294 42.8743 38.7519 43.3729 38.8111C43.5969 38.8364 43.8293 38.8576 44.0659 38.8576H44.18C44.4588 38.8449 44.7419 38.8195 45.0293 38.7604C45.3208 38.7054 45.6081 38.6167 45.887 38.4984C46.1786 38.3716 46.4448 38.1984 46.6856 37.9745C46.8504 37.8392 46.9856 37.628 47.0786 37.3407C47.1631 37.0829 47.2265 36.7871 47.2603 36.4787C47.2983 36.1745 47.3194 35.8449 47.3236 35.5069C47.3279 35.173 47.3236 34.8646 47.2983 34.5857C47.2772 34.3069 47.2434 34.0618 47.2053 33.8632L47.2011 33.859Z" fill="#F7F6F2"/>
<path fill-rule="evenodd" clip-rule="evenodd" d="M49.7445 35.1815V32.1182C50.1797 31.9787 50.6065 31.8773 51.0121 31.8182C51.3755 31.7632 51.7643 31.7548 52.153 31.7844C52.5079 31.8182 52.7868 31.9238 52.9896 32.1097C53.091 32.2449 53.1671 32.3844 53.222 32.5323C53.2685 32.6506 53.3023 32.7985 53.315 32.9675C53.3234 33.1111 53.2938 33.2675 53.2305 33.428C52.9769 33.6055 52.6727 33.7872 52.3262 33.9858C52.0051 34.1632 51.6079 34.3661 51.1474 34.5858C50.7459 34.7801 50.2769 34.9787 49.753 35.1815H49.7445ZM54.3755 31.6956C54.2699 31.4506 54.084 31.252 53.8389 31.1041C53.6065 30.9773 53.3403 30.8717 53.0403 30.821C52.7488 30.7661 52.4361 30.7365 52.0769 30.728H51.9417C51.6375 30.728 51.3417 30.7449 51.0502 30.7745C50.26 30.8421 49.3812 30.9942 48.4347 31.2182L48.291 31.2562V36.9097C48.3459 37.252 48.4474 37.5477 48.6037 37.7844C48.76 38.021 48.9459 38.2196 49.1699 38.3801C49.3896 38.5407 49.6347 38.659 49.9009 38.7393C50.1544 38.8196 50.4121 38.8787 50.6741 38.9125C50.9192 38.9506 51.1896 38.9675 51.4643 38.9675C51.8488 38.9675 52.2671 38.9294 52.7023 38.8618C52.9093 38.828 53.0445 38.7646 53.1206 38.659C53.1882 38.5618 53.2178 38.4984 53.2178 38.4266C53.2178 38.3125 53.1333 38.1858 52.9516 38.1858C52.9136 38.1858 52.8713 38.1858 52.8164 38.2027L52.6558 38.2365C52.2628 38.2787 51.9248 38.2787 51.6417 38.2365C51.3628 38.1942 51.1178 38.1182 50.9107 38.0294C50.7079 37.9323 50.5347 37.8224 50.4079 37.6914C50.2727 37.5646 50.1671 37.4294 50.0826 37.2773C49.9093 36.9646 49.8037 36.6013 49.7657 36.1956C50.5685 35.9759 51.2614 35.752 51.8319 35.5154C52.4276 35.2745 52.9136 35.0506 53.2854 34.8435C53.7206 34.6196 54.0755 34.3872 54.3375 34.1717L54.3713 34.1463L54.3924 34.1125C54.553 33.7872 54.6502 33.4745 54.6671 33.183C54.6882 32.9041 54.6797 32.6506 54.6333 32.4224C54.5868 32.1689 54.4981 31.928 54.3924 31.6914L54.3755 31.6956Z" fill="#F7F6F2"/>
<path fill-rule="evenodd" clip-rule="evenodd" d="M60.1739 34.5184V37.5691C59.7175 37.7085 59.2739 37.8057 58.8556 37.8733C58.6021 37.9114 58.3443 37.9283 58.0908 37.9283C57.9556 37.9283 57.8288 37.9283 57.6978 37.9114C57.3471 37.886 57.0852 37.7761 56.9204 37.5902C56.8232 37.4635 56.7556 37.324 56.7006 37.1719C56.6542 37.0494 56.6204 36.9057 56.6077 36.7409C56.595 36.6015 56.6288 36.4409 56.6922 36.2761C56.9373 36.1029 57.2373 35.917 57.6006 35.7184C57.9133 35.5452 58.3105 35.3423 58.7795 35.1184C59.1852 34.9198 59.6542 34.717 60.1739 34.5142V34.5184ZM61.3147 31.9114C61.1584 31.6705 60.9725 31.4761 60.7401 31.3198C60.5204 31.1677 60.2753 31.0536 60.0091 30.9649C59.7514 30.8888 59.4936 30.8297 59.2443 30.7916C58.6443 30.7114 57.9767 30.7198 57.233 30.8297C57.0936 30.855 56.9668 30.8888 56.8485 30.9353C56.6288 31.0283 56.5866 31.1592 56.5866 31.2564V31.379L56.7006 31.4254C56.7852 31.4635 56.8739 31.4804 56.9584 31.4804C56.9922 31.4804 57.0175 31.4804 57.0218 31.4804C57.0852 31.4804 57.1485 31.4677 57.2161 31.4423C57.5964 31.4001 57.9344 31.4001 58.2175 31.4423C58.5133 31.4846 58.7711 31.5564 58.9866 31.6409C59.2021 31.7254 59.3711 31.8353 59.5105 31.9578C59.6542 32.0846 59.7682 32.2198 59.8528 32.3592C60.0344 32.655 60.1359 32.993 60.1697 33.3691C59.3584 33.6057 58.657 33.8423 58.0823 34.0832C57.4781 34.3409 56.9711 34.5776 56.595 34.7846C56.1345 35.0423 55.7711 35.2832 55.4753 35.524L55.4373 35.5578L55.4204 35.6001C55.2809 35.9254 55.2091 36.2508 55.2006 36.5423C55.1964 36.8339 55.2006 37.0747 55.226 37.286C55.264 37.5438 55.3232 37.7846 55.4119 38.0001L55.4288 38.0339C55.6654 38.3973 56.0035 38.6508 56.426 38.7902C56.8105 38.9128 57.2373 38.9761 57.6936 38.9761H57.757C58.2302 38.9719 58.7077 38.9128 59.1767 38.8029C59.5359 38.7226 59.8697 38.6297 60.1697 38.5452V38.7395H61.6232V32.7649C61.5683 32.4311 61.4626 32.148 61.3105 31.9071V31.9114H61.3147Z" fill="#F7F6F2"/>
<path fill-rule="evenodd" clip-rule="evenodd" d="M69.7611 31.0325C69.6048 31.0959 69.4569 31.1254 69.3005 31.1254H69.1146V36.6395C68.9372 36.724 68.7005 36.8466 68.4005 37.0156C68.0667 37.1973 67.7203 37.3578 67.3569 37.4973C66.9935 37.6325 66.6428 37.7212 66.3175 37.7592C66.2625 37.7592 66.2118 37.7635 66.1611 37.7635C65.9414 37.7635 65.7597 37.7043 65.6245 37.5902C65.6245 37.5902 65.5865 37.548 65.5611 37.3494C65.5358 37.1888 65.5146 36.9902 65.4893 36.7578C65.4724 36.5339 65.4639 36.293 65.4513 36.0395C65.447 35.7818 65.4386 35.5409 65.4386 35.3254V31.117H64.002V37.2142C64.0104 37.548 64.0822 37.8311 64.2005 38.0677C64.3062 38.2747 64.4667 38.4691 64.678 38.6381C64.8597 38.7818 65.1132 38.8578 65.4174 38.8578C65.4851 38.8578 65.5611 38.8578 65.6203 38.8452C65.7005 38.8452 65.8146 38.824 65.971 38.786C66.1104 38.748 66.2541 38.7099 66.4062 38.6677C66.5541 38.6297 66.6893 38.5874 66.8034 38.5494C66.9259 38.5114 66.9851 38.4902 67.0189 38.4691C67.0569 38.4522 67.116 38.4311 67.2005 38.393L68.1386 38.0085C68.4344 37.886 68.7132 37.7761 68.971 37.6747C69.0259 37.6536 69.0724 37.6367 69.1146 37.6198V38.7353H70.5512V30.3438L70.2259 30.6902C70.0611 30.8592 69.9132 30.9733 69.7611 31.0325Z" fill="#F7F6F2"/>
<path fill-rule="evenodd" clip-rule="evenodd" d="M74.9529 25.1675L74.6149 25.6027C74.5093 25.7421 74.3698 25.8393 74.1839 25.9027C73.998 25.9661 73.8248 26.0041 73.6684 26.0041H73.4825V30.5083H71.8262V31.6069H73.4825V34.0407C73.4825 35.0168 73.5628 35.8196 73.7234 36.4323C73.8839 37.0449 74.0698 37.5309 74.2811 37.8858C74.5177 38.3083 74.805 38.6295 75.1388 38.8365L75.1726 38.8534C75.367 38.9295 75.4473 38.9379 75.4938 38.9379C75.5276 38.9379 75.5572 38.9379 75.5867 38.921L75.6881 38.8745L75.7219 38.7942C75.7473 38.7309 75.7431 38.6548 75.705 38.5745L75.5191 38.321C75.4388 38.2365 75.367 38.114 75.3163 37.9576C75.2529 37.7928 75.2022 37.5942 75.1642 37.383C75.1219 37.159 75.0881 36.9224 75.0628 36.6647C75.029 36.4196 75.0163 36.1661 74.9994 35.9126C74.9572 35.3421 74.9403 34.7168 74.9656 34.0407V31.6069H76.6219V30.5083H74.9656V25.1675H74.9529Z" fill="#F7F6F2"/>
<path fill-rule="evenodd" clip-rule="evenodd" d="M81.0298 36.7284L80.2143 34.7805C79.9481 34.1298 79.7157 33.5974 79.5298 33.1706C79.3439 32.7523 79.2044 32.4185 79.0988 32.1777C78.9974 31.9326 78.9171 31.7467 78.858 31.6199C78.803 31.5016 78.7734 31.4255 78.7608 31.3875C78.7481 31.3537 78.7481 31.341 78.7481 31.341V30.7368L78.4058 31.2396C78.3044 31.3917 78.2199 31.5143 78.1608 31.603C78.1143 31.6791 78.0636 31.7298 78.0256 31.7678C77.9875 31.8058 77.9411 31.8312 77.8988 31.8523C77.8354 31.8777 77.7467 31.9157 77.6368 31.9664L77.4551 32.0424L80.3073 38.5706C80.227 38.8917 80.1213 39.2509 79.9819 39.6481C79.8382 40.0495 79.627 40.4636 79.3608 40.865C79.0988 41.2622 78.7608 41.6467 78.3636 41.9974C77.9706 42.3481 77.4847 42.6354 76.9227 42.8594L76.8763 42.8763L76.8425 42.9185C76.8044 42.965 76.7664 43.0157 76.7453 43.0537C76.665 43.1763 76.6904 43.2734 76.7199 43.3157C76.7664 43.4086 76.8594 43.4509 76.9946 43.4509H77.0284C77.7805 43.3284 78.4396 43.0791 78.9805 42.7157C79.5213 42.3565 79.9777 41.934 80.3495 41.4608C80.7129 40.996 81.0087 40.4889 81.2326 39.9734C81.4523 39.4622 81.6256 38.9932 81.7354 38.596L84.7819 31.1382H83.4467L81.0551 36.7199L81.0298 36.7284Z" fill="#F7F6F2"/>
<path fill-rule="evenodd" clip-rule="evenodd" d="M94.3184 34.6069L94.2338 34.5815C93.9507 34.497 93.6212 34.404 93.2789 34.3195C92.9747 34.235 92.6029 34.1379 92.1677 34.0238C91.7536 33.9224 91.2888 33.804 90.7691 33.6857C90.7099 33.5801 90.6676 33.4533 90.6338 33.3308C90.6 33.1914 90.5874 33.0181 90.5874 32.8195C90.5874 32.6421 90.6296 32.4266 90.7099 32.1857C90.8029 32.0632 90.9465 31.9533 91.162 31.8688C91.3733 31.7843 91.6564 31.7252 92.0198 31.6871C92.3958 31.6533 92.8902 31.6871 93.5071 31.7717C93.6719 31.797 93.8198 31.8139 93.9465 31.8139C93.9888 31.8139 94.0268 31.8139 94.0479 31.8139C94.2085 31.8139 94.331 31.7801 94.4198 31.7167C94.4831 31.6745 94.5254 31.6026 94.5338 31.5308C94.5423 31.3914 94.4409 31.29 94.3522 31.2097L94.3184 31.1759L94.2846 31.1632C93.5831 30.9266 92.9113 30.7787 92.286 30.7195C92.0198 30.6942 91.7451 30.6857 91.4705 30.7026C91.1747 30.7195 90.9085 30.7618 90.6465 30.8421C90.3803 30.9224 90.131 31.0449 89.9155 31.2012C89.6831 31.3618 89.4972 31.5857 89.3409 31.8815C89.2564 32.1266 89.2057 32.4055 89.1888 32.7139C89.1761 32.9674 89.2015 33.2505 89.2522 33.5632C89.3113 33.8886 89.4465 34.2266 89.6578 34.5646L89.6916 34.6195L89.755 34.6407C90.0507 34.7463 90.3846 34.8604 90.7522 34.9787C91.0564 35.0717 91.4282 35.1815 91.8465 35.2956C92.2437 35.4097 92.6874 35.5153 93.1606 35.621C93.2409 35.7435 93.3043 35.8871 93.355 36.0562C93.4099 36.2167 93.4395 36.4111 93.4522 36.635C93.4648 36.8505 93.4268 37.0787 93.3507 37.328C93.2282 37.5815 93.0465 37.759 92.7888 37.8731C92.5733 37.9745 92.2648 38.0125 91.8761 37.9914C91.4789 37.9702 90.955 37.7928 90.3085 37.4674C90.2536 37.4421 90.2029 37.4083 90.1268 37.3491C90.0803 37.3238 90.0296 37.2857 89.9831 37.2435C89.9282 37.197 89.886 37.1463 89.8437 37.0998L89.8184 37.0745C89.7423 37.0153 89.6747 36.9984 89.6198 36.9984C89.5057 36.9984 89.4043 37.0618 89.3198 37.1928C89.2268 37.3195 89.1803 37.5393 89.4254 37.8477L89.4423 37.8688C89.7972 38.1857 90.1986 38.4477 90.6338 38.6421C90.8155 38.7266 91.0268 38.7984 91.255 38.8618C91.4789 38.9209 91.7282 38.9632 91.986 38.9674C92.0493 38.9674 92.1085 38.9674 92.1719 38.9674C92.3705 38.9674 92.5733 38.9548 92.7761 38.9252C93.0592 38.8871 93.3592 38.8069 93.6676 38.6843L93.693 38.6674C94.0522 38.4519 94.331 38.1519 94.5169 37.7843C94.6817 37.4674 94.7747 37.0533 94.7916 36.5505C94.8085 36.0519 94.6564 35.4181 94.3479 34.6829L94.3099 34.5984L94.3184 34.6069Z" fill="#F7F6F2"/>
<path fill-rule="evenodd" clip-rule="evenodd" d="M100.394 31.9663C100.812 32.0465 101.218 32.2325 101.585 32.5198C101.682 32.7775 101.75 33.0606 101.805 33.3606C101.864 33.6353 101.898 33.9564 101.906 34.3156C101.919 34.662 101.881 35.0296 101.792 35.4099C101.759 35.4437 101.657 35.5282 101.349 35.7099C101.082 35.862 100.656 36.0691 100.085 36.3268C99.5529 36.5677 98.8346 36.8634 97.8797 37.2311V32.0846C98.2937 31.9705 98.7036 31.9029 99.1092 31.8691C99.5064 31.848 99.929 31.8818 100.385 31.9663H100.394ZM103.09 32.1691C102.997 31.8902 102.866 31.6747 102.692 31.5311C102.409 31.3113 102.097 31.1339 101.771 31.0113C101.45 30.893 101.112 30.8043 100.774 30.7494C100.432 30.6944 100.09 30.6649 99.7642 30.6564C99.4304 30.6522 99.105 30.6691 98.7881 30.6987C98.0656 30.7663 97.3177 30.9311 96.5825 31.1634L96.4473 31.2057V43.5015H97.8839V38.4733C99.0543 38.0972 99.9797 37.7719 100.647 37.4846C101.361 37.1846 101.881 36.9395 102.228 36.7325C102.642 36.4916 102.908 36.2761 103.051 36.0775C103.128 36.0015 103.174 35.8747 103.216 35.6423C103.254 35.4395 103.28 35.1987 103.309 34.924C103.335 34.6451 103.347 34.3325 103.347 34.0029C103.347 33.6733 103.326 33.3395 103.284 33.0268C103.242 32.7057 103.178 32.4226 103.09 32.1649V32.1691Z" fill="#F7F6F2"/>
<path fill-rule="evenodd" clip-rule="evenodd" d="M109.407 34.5184V37.5691C108.951 37.7085 108.507 37.8057 108.089 37.8733C107.844 37.9114 107.578 37.9283 107.328 37.9283C107.202 37.9283 107.071 37.9283 106.944 37.9114C106.593 37.886 106.331 37.7761 106.166 37.5902C106.073 37.4635 106.002 37.3325 105.942 37.1719C105.896 37.0494 105.862 36.9057 105.849 36.7367C105.837 36.5973 105.866 36.4409 105.934 36.2761C106.175 36.1029 106.479 35.917 106.842 35.7184C107.147 35.5452 107.535 35.355 108.021 35.1184C108.423 34.9198 108.892 34.7212 109.416 34.5142L109.407 34.5184ZM110.861 38.7437V32.7691C110.806 32.4353 110.7 32.148 110.548 31.9114C110.392 31.6705 110.197 31.4761 109.973 31.3198C109.754 31.1677 109.509 31.0536 109.242 30.9649C108.985 30.8888 108.723 30.8297 108.478 30.7916C107.878 30.7114 107.206 30.7198 106.462 30.8297C106.323 30.855 106.196 30.893 106.082 30.9353C105.862 31.0198 105.816 31.1592 105.816 31.2564V31.379L105.934 31.4254C106.018 31.4635 106.107 31.4804 106.192 31.4804C106.225 31.4804 106.251 31.4804 106.255 31.4804C106.318 31.4804 106.382 31.4677 106.449 31.4423C106.83 31.4001 107.168 31.4001 107.451 31.4423C107.747 31.4846 108.004 31.5564 108.216 31.6409C108.431 31.7254 108.6 31.8353 108.74 31.9578C108.883 32.093 109.002 32.2198 109.082 32.355C109.263 32.6508 109.373 32.9888 109.399 33.3649C108.587 33.6015 107.886 33.8381 107.311 34.079C106.699 34.3367 106.2 34.5733 105.824 34.7804C105.359 35.0381 104.992 35.279 104.704 35.5198L104.666 35.5536L104.649 35.5959C104.51 35.917 104.438 36.2381 104.43 36.5381C104.43 36.8043 104.43 37.0578 104.455 37.2818C104.493 37.5437 104.556 37.7804 104.641 38.0001L104.658 38.0254C104.89 38.3888 105.228 38.6423 105.655 38.7818C106.04 38.9043 106.466 38.9677 106.923 38.9677H106.986C107.451 38.9635 107.937 38.9043 108.406 38.7945C108.765 38.7142 109.099 38.6212 109.399 38.5367V38.7311H110.861V38.7437Z" fill="#F7F6F2"/>
<path fill-rule="evenodd" clip-rule="evenodd" d="M97.9513 47.4943C97.7485 47.4394 97.4147 47.4267 97.1189 47.4943C96.6879 47.6126 95.7245 47.769 94.9048 47.845C94.926 47.5112 94.9386 47.1478 94.926 46.8267C96.426 46.2732 96.595 46.2436 96.7133 46.2225C97.0851 46.1549 97.0851 46.0281 96.371 45.7788C95.9316 45.6225 95.8091 45.6774 95.7668 45.8845C95.7288 46.0873 95.5724 46.2605 94.8753 46.6492C94.0851 46.4169 93.9837 46.5309 94.2583 46.8056C94.364 46.907 94.4443 48.2845 94.2119 49.1126C94.0344 49.7507 93.5907 50.2999 92.8936 50.8661C92.7161 51.0056 92.7753 51.0732 92.9781 50.9845C94.1569 50.3929 94.8034 49.5478 94.8922 48.0352C95.095 48.0563 95.3696 48.0563 95.9062 48.0183C95.94 48.2802 95.9907 48.8718 95.9738 49.0408C95.9358 50.0422 95.9485 52.007 95.995 52.1506C96.0626 52.4253 96.1724 52.4337 96.2781 52.2098C96.4809 51.7957 96.5612 51.1788 96.5316 47.9591C96.9119 47.9253 97.4105 47.883 98.0316 47.8239C98.3865 47.7901 98.4034 47.6084 97.9471 47.4816L97.9513 47.4943ZM92.7288 48.1323C92.7076 48.3943 92.6823 48.6056 92.6231 48.7957C92.5767 48.969 92.5386 48.9816 91.3851 49.1549C91.4823 48.838 91.5203 48.4957 91.5414 48.1323C91.6809 48.1323 91.8161 48.1112 92.0992 48.0647C92.6823 47.9464 92.7414 47.9633 92.7288 48.1323ZM93.1344 48.7999C93.0499 48.7619 93.0288 48.6943 93.126 48.5042C93.2823 48.2042 93.4386 47.9845 93.5274 47.9295C93.7133 47.7943 93.7133 47.714 93.4091 47.6126C92.9316 47.4394 92.8851 47.4352 92.6485 47.5746C92.3358 47.7521 91.926 47.8704 91.5372 47.8999C91.5499 47.5661 91.5372 47.207 91.5288 46.8816C93.0879 46.3408 93.2654 46.2901 93.3837 46.2774C93.6795 46.2394 93.726 46.0535 93.1682 45.7873C92.7161 45.5633 92.6443 45.6267 92.6105 45.8633C92.5893 46.0408 92.4541 46.176 91.4907 46.7168C90.5992 46.438 90.4809 46.514 90.7893 46.8563C91.0133 47.0971 91.1231 48.2253 90.9161 49.1633C90.7513 49.945 90.3457 50.6929 89.9062 51.1112C89.7414 51.2845 89.8091 51.3436 89.9907 51.2464C90.595 50.9295 91.0724 50.2619 91.3133 49.3746C91.9175 49.3704 92.602 49.2732 93.1682 49.1168C93.3795 49.0619 93.409 48.9394 93.1344 48.7999ZM86.3654 48.8845C85.8879 48.7408 85.7612 48.7408 84.9499 48.8887C84.1893 49.045 81.6668 49.307 81.3668 49.3028C81.0245 49.2985 81.0076 49.3873 81.3076 49.4887C81.5527 49.5732 81.8527 49.6112 82.1485 49.5647C82.364 49.5309 82.7443 49.4887 83.1837 49.4422C83.2175 49.5352 83.1837 49.6492 83.0865 49.7887C82.8499 50.1225 82.1696 50.7309 81.9541 50.7901C81.3499 50.9295 81.3372 50.9676 81.5147 51.3732C81.633 51.6352 81.7006 51.6352 82.0893 51.4408C82.4823 51.2464 83.6105 50.9845 85.195 50.7901C85.4189 51.0647 85.6344 51.3098 85.8499 51.5507C86.0147 51.7366 86.2429 51.6901 86.2809 51.5168C86.3865 51.0183 86.1837 50.6084 84.8485 50.0042C84.5738 49.8859 84.5062 49.9366 84.6626 50.1225C84.8062 50.3 84.9457 50.4816 85.064 50.6337C83.5978 50.7521 82.9471 50.8112 82.3006 50.8788C82.7612 50.5535 83.5978 49.9619 83.7879 49.9028C84.0879 49.8014 84.033 49.6281 83.3865 49.4126C84.2569 49.3197 85.3133 49.2267 85.9048 49.2098C86.8217 49.176 86.6865 48.9774 86.3696 48.876L86.3654 48.8845ZM88.6175 48.3267C86.9865 47.9253 86.5386 47.7521 84.0879 45.7957C84.1682 45.6943 84.2443 45.6225 84.2823 45.6098C84.6034 45.5084 84.5274 45.314 84.1048 45.1535C83.6443 44.9676 83.5217 45.014 83.5682 45.2718C83.602 45.4154 83.4245 45.8549 83.1034 46.2816C82.4485 47.1521 81.2569 48.314 79.8795 48.9774C79.664 49.0704 79.7358 49.1718 79.9471 49.1126C81.7048 48.5929 83.2682 47.0337 83.9865 45.9647C84.5907 46.607 86.1626 48.0605 86.4753 48.3098C86.9062 48.6352 86.9907 48.6436 88.6302 48.5422C89.0485 48.5211 89.0231 48.4366 88.6091 48.3352H88.6175V48.3267ZM83.902 48.2718C84.2147 48.2338 84.8907 48.0985 85.0048 48.0647C85.2879 47.9718 85.3006 47.8535 85.0048 47.769C84.7893 47.7056 84.4682 47.7056 83.7541 47.8915C83.4076 47.9845 82.7696 48.0943 82.5922 48.0943C82.3302 48.0943 82.271 48.1619 82.533 48.2718C82.74 48.3478 83.2471 48.3478 83.902 48.2718ZM77.2048 47.2661C76.9809 47.1943 76.8837 47.2197 76.7062 47.3042C76.6006 47.3676 75.8274 47.5112 75.2992 47.5999C74.6823 47.6929 74.3443 47.7225 73.964 47.7183C73.7612 47.7056 73.7105 47.8112 74.0231 47.9802C74.2091 48.0816 74.2978 48.1028 74.6781 48.0014C75.1936 47.8661 76.0598 47.6887 76.5034 47.6168C76.7654 47.5704 76.7992 47.5957 76.6682 47.8197C76.5414 48.0436 76.3344 48.3436 76.0344 48.6183C75.4513 48.2845 75.2231 48.4028 75.4175 48.5845C75.5823 48.7408 75.671 48.8971 75.7513 49.0957C75.8696 49.3746 75.9457 49.9323 75.8907 50.3464C75.7724 51.107 75.5907 51.2507 74.8302 51.1577C74.5471 51.1197 74.5682 51.1957 74.7119 51.2971C74.9654 51.4577 75.202 51.6816 75.3372 51.876C75.4429 52.0323 75.6203 52.0154 75.7893 51.8591C76.2457 51.4408 76.3936 51.0647 76.3936 50.3971C76.3936 49.7676 76.3555 49.4422 76.2541 49.1295C76.2161 49.0112 76.1696 48.8718 76.1105 48.745C77.1668 48.0309 77.2429 47.9845 77.526 47.8661C77.7795 47.7605 77.8091 47.7098 77.7119 47.5746C77.6316 47.469 77.3612 47.3126 77.2133 47.2619L77.2048 47.2661ZM75.4091 45.8929C75.7048 45.9774 75.933 45.8464 75.802 45.5802C75.6964 45.3563 75.4302 45.183 74.7795 45.238C74.4668 45.2591 74.4372 45.3394 74.5429 45.4239C74.7161 45.5633 75.1133 45.8042 75.4091 45.8929ZM77.34 46.3492C77.6992 46.2732 77.6992 46.1337 77.3654 46.0704C77.1203 46.0239 76.7992 46.0535 76.533 46.1168C74.9738 46.4802 74.2386 46.6197 73.4696 46.6197C72.9457 46.4168 72.8147 46.4676 72.971 46.7422C73.0893 46.9577 73.009 47.8408 72.8443 48.5507C71.6443 49.007 71.0105 49.214 70.7358 49.1887C70.4738 49.1549 70.2964 49.2732 70.7823 49.5859C71.0443 49.7591 71.1837 49.7718 71.3781 49.6028C71.6316 49.3957 72.071 49.1295 72.8062 48.7323C72.5907 49.5816 72.0245 50.6802 71.3062 51.2507C70.926 51.5676 71.0105 51.6478 71.3527 51.4535C72.2696 50.9338 72.7682 50.2577 73.1696 49.2478C73.4231 48.6056 73.6006 47.3084 73.5414 46.7633C74.2555 46.8859 75.2696 46.8014 77.34 46.345V46.3492ZM71.6738 47.8957C71.9274 48.1366 72.126 48.069 72.1851 47.6633C72.2062 47.507 71.9612 47.2197 71.4245 47.0718C71.2217 47.0169 71.1288 47.0337 71.2091 47.207C71.3443 47.4985 71.4922 47.7183 71.6738 47.8999V47.8957ZM69.1344 49.8563C67.6682 49.5985 66.726 49.2985 65.3274 48.0859C66.764 47.1859 67.2541 46.9281 67.5161 46.8183C67.7696 46.7168 67.7189 46.6028 67.3006 46.3661C66.7809 46.1042 66.6245 46.1633 66.6583 46.3492C66.6837 46.5098 66.3626 47.0802 65.171 47.9422C65.0443 47.8408 64.926 47.7309 64.8119 47.6253C64.833 46.4971 64.8921 46.0281 65.0147 45.8929C65.2006 45.6985 65.1414 45.6014 64.5964 45.3563C64.0386 45.1112 63.8062 45.2337 64.1443 45.6014C64.3006 45.7788 64.3682 46.1126 64.3682 47.8112C64.3682 48.5422 64.2921 50.0887 64.2626 50.2999C64.195 50.7985 64.1358 50.8197 63.3541 50.6718C63.1513 50.6337 63.1175 50.7098 63.2569 50.7901C63.4936 50.9295 63.9372 51.3647 64.1147 51.5676C64.2584 51.745 64.3978 51.745 64.5203 51.576C64.8541 51.1197 64.9006 50.8957 64.8626 50.1563C64.8161 49.3746 64.8034 48.5591 64.8034 47.9464C65.3992 48.538 66.1724 49.2816 66.7936 49.8605C67.2245 50.245 67.2837 50.2619 69.1006 50.0633C69.4767 50.0295 69.464 49.907 69.1344 49.8563ZM63.8443 47.7521C63.9626 47.6591 63.9626 47.5661 63.6499 47.3929C63.3668 47.2323 63.2443 47.2154 63.0245 47.3549C62.7626 47.5281 61.571 47.714 61.2372 47.6802C61.0598 47.6633 61.0217 47.7859 61.1781 47.8661C61.5583 48.0605 61.6767 48.0732 62.0358 47.9676C62.2302 47.9126 62.6992 47.8112 62.9316 47.7732C63.1175 47.7394 63.1175 47.7521 63.0288 47.9337C62.902 48.2295 62.6231 48.7661 62.4541 49.0112C62.095 49.514 61.4992 50.1056 60.7978 50.5197C60.5738 50.6549 60.7175 50.6802 60.9541 50.6042C61.5879 50.3887 62.3358 49.9281 62.8598 49.2521C63.1217 48.9267 63.3499 48.5464 63.4851 48.276C63.6626 47.9253 63.7006 47.8619 63.8443 47.7521ZM55.233 49.4676C55.2119 49.5859 55.1485 49.8014 55.1062 49.8859C55.0682 49.9704 54.9203 50.0253 54.7724 50.0464C54.4978 50.0929 54.1091 50.1394 53.7964 50.169C53.7964 49.9281 53.7583 49.6323 53.6781 49.307C54.1386 49.2605 54.5485 49.2309 54.84 49.2056C55.2119 49.1845 55.271 49.2394 55.233 49.4633V49.4676ZM55.7231 48.8845C55.4781 48.7788 55.3048 48.7661 55.0471 48.9225C54.9414 48.9859 54.1302 49.0788 53.5133 49.1168C53.0231 48.9943 52.9682 49.0957 53.0823 49.2394C53.226 49.4253 53.3865 49.9154 53.4161 50.3126C53.4372 50.5366 53.5555 50.638 53.64 50.638C53.7245 50.638 53.7795 50.5746 53.7964 50.4056C54.2485 50.3591 55.0851 50.2999 55.533 50.283C55.795 50.2788 55.8541 50.1816 55.7105 50.038C55.6048 49.9366 55.6133 49.8309 55.7316 49.6408C55.7907 49.5478 55.8964 49.4549 56.0443 49.3788C56.2682 49.2605 56.2682 49.138 55.7231 48.8929V48.8845ZM55.4696 47.1985C55.8119 47.0971 56.2302 46.9239 56.7879 46.6746C56.9062 46.6197 57.1006 46.5352 57.2443 46.4971C57.5443 46.4126 57.5443 46.3028 56.9907 45.9985C56.6696 45.8211 56.5598 45.876 56.4921 46.1168C56.4457 46.3028 55.9809 46.7422 55.3978 47.0591C55.2119 47.1521 55.271 47.2535 55.4696 47.1985ZM58.0851 47.883C57.6076 47.6676 57.4893 47.6676 57.1217 47.7647C57.0372 47.7859 56.6696 47.8323 56.34 47.8577C56.0443 47.8746 55.4992 47.9253 54.7893 47.9971C54.8696 46.8183 54.9541 45.9267 55.0048 45.8253C55.1612 45.5084 55.0893 45.407 54.5147 45.2718C54.0034 45.1535 53.8978 45.2676 54.1682 45.6056C54.3499 45.838 54.3922 46.5774 54.3245 48.0394C53.6316 48.107 52.8245 48.1999 51.9541 48.2845C51.3372 48.0225 51.24 48.0985 51.4893 48.4577C51.7048 48.7746 51.7048 50.0042 51.6161 50.414C51.5485 50.7267 51.5485 50.8112 51.5907 50.9168C51.7555 51.3521 52.0429 51.3605 52.1274 50.9845C52.195 50.6887 52.195 50.5197 52.1865 50.1732C52.1654 49.6323 52.14 49.0323 52.0893 48.5126C53.995 48.2887 55.5541 48.1619 56.6189 48.1323C57.3795 48.0985 57.4978 48.1704 57.5485 48.707C57.5865 49.138 57.5696 49.7168 57.464 50.3042C57.3583 50.9042 57.1513 50.9633 56.4499 50.7563C56.0907 50.6507 56.0696 50.7394 56.3654 50.9422C56.471 51.0183 56.7457 51.3436 56.9105 51.5845C57.0668 51.8168 57.1259 51.8084 57.4809 51.5845C57.802 51.3647 58.1231 50.8197 58.1443 50.2957C58.1907 49.1633 58.2499 48.6056 58.3471 48.5042C58.6091 48.1915 58.6217 48.0901 58.1105 47.8661L58.0851 47.883ZM52.964 47.4394C53.1583 47.6338 53.3358 47.5999 53.4541 47.3718C53.5724 47.0971 53.4161 46.814 52.6809 46.5732C52.4443 46.4887 52.3006 46.4971 52.4654 46.7591C52.6598 47.0887 52.7654 47.245 52.964 47.4394ZM45.9076 49.1042C45.8865 48.8084 45.6457 48.6225 45.1175 48.483C44.8048 48.3985 44.8048 48.4661 44.94 48.669C45.1429 48.9816 45.3119 49.2267 45.4302 49.3492C45.6245 49.5605 45.9414 49.4887 45.9076 49.1042ZM49.2879 47.3169C48.9752 47.1732 48.6921 47.1605 48.2738 47.2492C48.1091 47.2873 47.809 47.3507 47.4414 47.4056C47.433 46.6704 47.5006 46.2225 47.6062 46.0323C47.7626 45.7197 47.7119 45.6521 47.2133 45.4746C46.6175 45.2591 46.5203 45.3563 46.7738 45.6774C46.9133 45.8633 46.9893 46.2352 47.0105 47.469C46.1527 47.5915 45.164 47.714 44.8217 47.7309C44.3569 47.7478 44.2555 47.8154 44.7034 47.9422C44.9189 48.0056 45.1344 48.0352 45.4851 47.9591C45.8189 47.8915 46.402 47.8197 47.0189 47.7563C47.0443 48.4661 47.04 49.907 46.9386 50.7816C46.9133 51.0436 46.871 51.1281 45.9372 50.9168C45.6752 50.8535 45.6414 50.8788 45.8105 51.0098C46.1105 51.2549 46.4654 51.5845 46.702 51.8295C46.8668 52.0154 46.964 52.0239 47.1203 51.8507C47.4541 51.4915 47.5978 51.1408 47.5724 50.6718C47.5259 49.9957 47.4541 48.3267 47.4457 47.7183C48.0288 47.6802 48.5569 47.6549 48.8147 47.6802C49.7062 47.7563 49.6048 47.4774 49.2922 47.3211V47.3169H49.2879ZM43.626 50.0845C43.3302 49.8985 43.2541 49.8901 42.3288 49.9788C42.3414 49.7168 42.3499 49.0873 42.3414 48.4492C42.5865 48.5042 42.8781 48.4873 43.2964 48.3901C43.5583 48.3267 43.5203 48.2042 43.3175 48.1577C43.14 48.1112 43.0217 48.1028 42.3414 48.2929C42.3414 47.6887 42.3288 47.0929 42.3203 46.814C42.5823 46.814 42.7006 46.8098 43.1105 46.7295C43.6217 46.6366 43.7062 46.683 43.7274 47.0253C43.7738 47.807 43.7654 49.6408 43.6302 50.0971V50.0845H43.626ZM44.2767 46.4929C43.8457 46.2901 43.7062 46.2859 43.5034 46.3746C43.0513 46.5901 42.6541 46.6535 42.2445 46.6154C41.6276 46.4084 41.6022 46.5478 41.7797 46.7676C41.8262 46.8267 41.9191 47.2197 41.9233 47.4183C41.9614 47.9929 41.9698 49.6535 41.8557 49.9323C41.7586 50.1563 41.7586 50.2915 41.8811 50.5957C41.9783 50.8281 42.1811 50.7816 42.2865 50.2366C43.3091 50.1352 43.4062 50.1436 43.5245 50.3591C43.5245 50.4267 43.5457 50.5112 43.609 50.6337C43.7485 50.9507 43.8626 50.9929 44.0147 50.7014C44.171 50.4183 44.2006 50.1478 44.171 49.4126C44.1119 47.8619 44.1795 47.0042 44.3485 46.8816C44.5893 46.6957 44.5429 46.6239 44.264 46.4845L44.2767 46.4929ZM32.0233 48.183C32.3191 48.3394 32.4755 48.2169 32.429 47.9422C32.391 47.6633 32.1079 47.507 31.5712 47.4859C31.3177 47.4816 31.2501 47.507 31.4149 47.6887C31.66 47.9633 31.8797 48.107 32.0191 48.1873V48.183H32.0233ZM34.4867 46.5098C34.0262 46.3915 33.9501 46.5436 34.1064 46.6957C34.3811 46.9366 34.4783 47.6549 34.4064 48.5295C34.3388 49.383 34.1107 50.3845 33.0966 51.1154C32.9191 51.2507 33.029 51.3309 33.1811 51.2591C33.6966 51.0478 34.3346 50.5408 34.6177 49.7676C34.7614 49.3704 34.8543 48.6436 34.9008 47.3633C34.9135 47.169 34.9262 46.9619 34.9473 46.8774C34.9853 46.7042 34.9346 46.645 34.4825 46.514V46.5098H34.4867ZM37.9811 45.4197C37.529 45.2845 37.4191 45.4197 37.6093 45.6225C37.8459 45.8549 37.905 46.0746 37.9515 47.1309C38.0276 48.9183 38.0107 50.583 37.8712 50.9718C37.736 51.3309 37.7656 51.4239 37.9684 51.8887C38.0952 52.2014 38.2431 52.1507 38.3614 51.9352C38.5473 51.6014 38.5177 50.6464 38.4797 50.1056C38.4543 49.7718 38.4121 48.9056 38.4121 47.0549C38.4121 46.345 38.4374 46.2394 38.5177 45.9394C38.5853 45.6774 38.5388 45.6056 37.9811 45.4281V45.4197ZM33.3881 46.4929C33.3079 46.176 33.0543 46.0366 32.4712 45.9732C32.2557 45.9521 32.1966 45.9774 32.3318 46.1591C32.5473 46.4507 32.7374 46.6704 32.9867 46.7845C33.236 46.9197 33.4473 46.7337 33.3881 46.4929ZM33.1853 49.0239C33.2064 49.2563 33.4219 49.3492 33.6163 49.1168C33.8318 48.8591 33.9755 48.3563 33.8149 48.0985C33.6966 47.9042 33.5698 47.9422 33.5318 48.1323C33.4726 48.3774 33.3755 48.5845 33.2867 48.7028C33.1938 48.8211 33.1726 48.8887 33.1853 49.0239ZM35.2895 47.9971C35.1543 47.9591 35.0529 48.014 35.1332 48.1492C35.2388 48.3352 35.3698 48.483 35.4797 48.6309C35.6064 48.7915 35.86 48.7239 35.8811 48.5253C35.9022 48.314 35.7163 48.0943 35.2853 48.0056V47.9971H35.2895ZM36.8825 47.769C36.7262 47.7521 36.6586 47.8239 36.7177 47.9042C36.8571 48.0816 37.1487 48.3056 37.2881 48.3774C37.4656 48.4704 37.6304 48.3985 37.6346 48.2718C37.6557 47.9887 37.3219 47.8112 36.8825 47.769ZM32.5726 49.0239C32.3952 49.3028 32.2304 49.5436 32.1079 49.776C31.9431 50.0591 31.8332 50.1943 31.6769 50.2957C31.5797 50.3591 31.5712 50.414 31.7614 50.7605C32.1332 51.3859 32.3783 51.314 32.3445 50.8154C32.3233 50.5154 32.6064 49.4464 32.7374 49.0619C32.8473 48.7281 32.767 48.7112 32.5726 49.0239ZM36.2994 46.383C35.9867 46.2816 35.8473 46.345 35.9656 46.5014C36.1431 46.7253 36.2191 47.0718 36.2402 47.5239C36.2783 48.4154 36.2191 49.1337 36.0966 49.5563C35.9909 49.9408 35.9994 50.0591 36.1684 50.3168C36.2656 50.4774 36.3839 50.4943 36.4304 50.3887C36.536 50.1647 36.5952 49.8309 36.5952 49.3873C36.5952 49.1253 36.6205 48.3309 36.6417 47.6338C36.6543 47.1985 36.667 46.983 36.7093 46.8183C36.7557 46.6028 36.6839 46.5056 36.3036 46.383H36.2994ZM27.6586 47.5492C27.6966 47.7647 27.5191 48.1746 26.505 49.2309C26.3783 49.3661 26.4459 49.4422 26.6233 49.3366C27.1473 49.0408 27.5614 48.7239 28.005 48.3521C28.2586 48.1492 28.4233 48.0352 28.5755 47.9718C28.7783 47.8873 28.7783 47.7394 28.2628 47.507C27.8022 47.2957 27.629 47.3718 27.6586 47.545V47.5492ZM23.2938 49.2478C23.5304 49.3873 23.6952 49.3661 23.7712 49.0619C23.8684 48.6774 23.4755 48.2802 22.6304 48.0774C22.4867 48.0394 22.4064 48.0985 22.4909 48.238C22.8501 48.7746 23.1332 49.1549 23.2895 49.2478H23.2938ZM25.774 50.4056C25.5501 50.4225 25.229 50.4394 24.8571 50.4605C24.836 47.7859 24.8783 47.2999 24.9332 47.1732C25.0135 46.9957 24.9712 46.8563 24.5867 46.6873C24.967 46.6408 25.3853 46.6028 25.8036 46.5521C25.8966 46.8943 25.905 47.8239 25.774 50.4056ZM29.3191 50.4943C28.8586 50.2492 28.5248 50.1985 27.4726 50.2999C27.236 50.3211 26.8093 50.3549 26.2811 50.3845C26.4586 47.8366 26.5219 47.1732 26.5811 47.0168C26.6614 46.8225 26.6191 46.7718 26.1205 46.5267C26.6318 46.4802 27.1557 46.4338 27.6543 46.3915C28.4149 46.3281 28.4149 46.2183 28.0938 46.0577C27.76 45.8971 27.46 45.9014 26.5135 46.0619C25.6642 46.2056 24.1895 46.3788 23.1079 46.4253C22.8332 46.4338 22.8079 46.5098 23.0402 46.6281C23.2938 46.7338 23.6149 46.7633 24.2022 46.7126C24.2867 47.0845 24.3417 47.8957 24.3417 50.4985C23.8557 50.5323 23.3445 50.5577 22.9726 50.5915C22.5417 50.6253 22.0684 50.6295 21.6755 50.6253C21.3755 50.6211 21.4135 50.7478 21.6966 50.9042C22.0177 51.0816 22.174 51.0985 22.6853 51.0098C23.2093 50.9253 24.7219 50.7647 25.1825 50.7478C27.2698 50.676 28.0135 50.7478 29.1248 50.9211C29.636 50.9971 29.8177 50.7478 29.3233 50.4859H29.3191V50.4943Z" fill="#F7F6F2"/>
<path d="M45.1724 62.7353V62.0297H47.5724V62.7353H45.1724ZM45.1724 58.6832V57.9776H47.5724V58.6832H45.1724ZM45.1724 60.5339V59.841H47.4372V60.5339H45.1724ZM44.6738 57.9776H45.464V62.7353H44.6738V57.9776ZM48.8696 61.2057C48.9752 61.3874 49.0851 61.548 49.2034 61.6874C49.3259 61.8226 49.4612 61.9283 49.6048 62.0086C49.7485 62.0804 49.9133 62.1184 50.095 62.1184C50.3104 62.1184 50.4879 62.0593 50.6231 61.941C50.7583 61.8226 50.8259 61.6705 50.8259 61.4846C50.8259 61.3072 50.7837 61.1677 50.695 61.0621C50.6104 60.9522 50.4879 60.8635 50.3358 60.7917C50.1879 60.7156 50.0104 60.6395 49.8119 60.5677C49.6935 60.5255 49.5626 60.4705 49.4189 60.4029C49.2752 60.3311 49.1358 60.2424 49.0048 60.1367C48.8738 60.0269 48.764 59.8959 48.6795 59.7438C48.595 59.5832 48.5485 59.3931 48.5485 59.1733C48.5485 58.9198 48.6161 58.6959 48.7471 58.5057C48.8781 58.3114 49.0555 58.1635 49.2752 58.0579C49.5034 57.948 49.7569 57.8931 50.0443 57.8931C50.3231 57.8931 50.5682 57.9438 50.7795 58.0409C50.9865 58.1424 51.164 58.2691 51.3034 58.4212C51.4471 58.5733 51.5612 58.7381 51.6414 58.9029L50.9907 59.2705C50.9316 59.1522 50.8555 59.0424 50.7668 58.9452C50.6781 58.8395 50.5682 58.7593 50.4457 58.7001C50.3273 58.6367 50.1879 58.6029 50.0316 58.6029C49.8076 58.6029 49.6471 58.6536 49.5414 58.7593C49.4358 58.8607 49.3851 58.9748 49.3851 59.1142C49.3851 59.2367 49.4231 59.3466 49.495 59.448C49.571 59.5452 49.6893 59.6339 49.8499 59.7184C50.0062 59.8029 50.2133 59.8917 50.4668 59.9846C50.6062 60.0353 50.7457 60.0987 50.8893 60.1748C51.033 60.2508 51.164 60.348 51.2823 60.4663C51.4006 60.5804 51.4935 60.7114 51.5612 60.8677C51.633 61.0198 51.671 61.2015 51.671 61.4128C51.671 61.6367 51.6288 61.8353 51.54 62.0128C51.4555 62.1902 51.3372 62.3381 51.1851 62.4607C51.0372 62.579 50.864 62.6677 50.6738 62.7311C50.4879 62.7987 50.2935 62.8325 50.0907 62.8325C49.8076 62.8325 49.5499 62.7776 49.309 62.6677C49.0724 62.5536 48.8654 62.4057 48.6921 62.2198C48.5147 62.0339 48.3752 61.8311 48.2696 61.6156L48.8696 61.2057ZM52.0175 58.7212V57.9818H55.3344V58.7212H54.0752V62.7395H53.2682V58.7212H52.0175ZM55.2837 62.3888C55.2837 62.2579 55.3302 62.148 55.4189 62.055C55.5161 61.9579 55.6259 61.9114 55.7569 61.9114C55.8964 61.9114 56.0147 61.9579 56.1034 62.055C56.1921 62.1438 56.2386 62.2579 56.2386 62.3888C56.2386 62.5156 56.1921 62.6255 56.1034 62.7226C56.0147 62.8198 55.8964 62.8663 55.7569 62.8663C55.6259 62.8663 55.5119 62.8198 55.4189 62.7226C55.3302 62.6297 55.2837 62.5156 55.2837 62.3888ZM58.9851 62.7353L61.1865 60.4156C61.3006 60.2931 61.3978 60.1748 61.4781 60.0607C61.5583 59.9466 61.6217 59.8325 61.6597 59.7226C61.702 59.6086 61.7189 59.4902 61.7189 59.3635C61.7189 59.2748 61.702 59.186 61.664 59.0973C61.6302 59.0086 61.5795 58.924 61.5076 58.8522C61.44 58.7804 61.3555 58.7212 61.2541 58.6832C61.1527 58.6367 61.0386 58.6156 60.9076 58.6156C60.7259 58.6156 60.5696 58.6579 60.4386 58.7466C60.3076 58.8269 60.2062 58.9494 60.1344 59.1057C60.0668 59.2663 60.033 59.448 60.033 59.655H59.2386C59.2386 59.317 59.302 59.0128 59.4288 58.7508C59.5597 58.4846 59.7499 58.2733 59.9992 58.1255C60.2527 57.9733 60.5612 57.8931 60.9245 57.8931C61.1992 57.8931 61.44 57.9395 61.6471 58.0283C61.8499 58.1128 62.0189 58.2269 62.1499 58.3663C62.2851 58.5057 62.3865 58.6621 62.4499 58.8269C62.5175 58.9959 62.5513 59.1564 62.5513 59.317C62.5513 59.5663 62.4921 59.8072 62.3696 60.0395C62.2513 60.2719 62.095 60.479 61.9006 60.6564L60.5485 61.9832H62.6147V62.7311H58.9851V62.7353ZM64.009 60.3564C64.009 60.61 64.0344 60.8424 64.0851 61.0579C64.1358 61.2691 64.2034 61.455 64.2964 61.6071C64.3935 61.7593 64.5034 61.8818 64.6344 61.9663C64.7654 62.0466 64.909 62.0888 65.0696 62.0888C65.2386 62.0888 65.3865 62.0466 65.5133 61.9663C65.6443 61.8818 65.7541 61.7593 65.8471 61.6071C65.9442 61.455 66.0161 61.2691 66.0626 61.0579C66.1133 60.8466 66.1386 60.61 66.1386 60.3564C66.1386 60.1029 66.1133 59.8705 66.0626 59.655C66.0119 59.4438 65.94 59.2579 65.8471 59.1057C65.7583 58.9536 65.6443 58.8353 65.5133 58.7508C65.3865 58.6663 65.2386 58.6198 65.0696 58.6198C64.909 58.6198 64.7654 58.6621 64.6344 58.7508C64.5034 58.8311 64.3893 58.9494 64.2964 59.1057C64.2076 59.2579 64.1358 59.4438 64.0851 59.655C64.0344 59.8705 64.009 60.1029 64.009 60.3564ZM63.2231 60.3564C63.2231 59.8621 63.2992 59.4311 63.4555 59.0635C63.6161 58.6959 63.8316 58.4128 64.1062 58.2057C64.3893 58.0029 64.7104 57.9015 65.0696 57.9015C65.4414 57.9015 65.7668 58.0029 66.0414 58.2057C66.3245 58.4086 66.54 58.6959 66.6921 59.0635C66.8442 59.4311 66.9245 59.8621 66.9245 60.3564C66.9245 60.8508 66.8485 61.2818 66.6921 61.6494C66.54 62.017 66.3203 62.3001 66.0414 62.5072C65.7668 62.71 65.4414 62.8114 65.0696 62.8114C64.7062 62.8114 64.3851 62.71 64.1062 62.5072C63.8316 62.3043 63.6119 62.017 63.4555 61.6494C63.2992 61.2818 63.2231 60.8508 63.2231 60.3564ZM68.2597 60.3564C68.2597 60.61 68.2851 60.8424 68.3358 61.0579C68.3865 61.2691 68.4541 61.455 68.5471 61.6071C68.6442 61.7593 68.7541 61.8818 68.8851 61.9663C69.0161 62.0466 69.1597 62.0888 69.3203 62.0888C69.4893 62.0888 69.6372 62.0466 69.764 61.9663C69.895 61.8818 70.0048 61.7593 70.0978 61.6071C70.195 61.455 70.2668 61.2691 70.3133 61.0579C70.364 60.8466 70.3893 60.61 70.3893 60.3564C70.3893 60.1029 70.364 59.8705 70.3133 59.655C70.2626 59.4438 70.1907 59.2579 70.0978 59.1057C70.009 58.9536 69.895 58.8353 69.764 58.7508C69.6372 58.6663 69.4893 58.6198 69.3203 58.6198C69.1597 58.6198 69.0161 58.6621 68.8851 58.7508C68.7541 58.8311 68.64 58.9494 68.5471 59.1057C68.4583 59.2579 68.3865 59.4438 68.3358 59.655C68.2851 59.8705 68.2597 60.1029 68.2597 60.3564ZM67.4696 60.3564C67.4696 59.8621 67.5457 59.4311 67.702 59.0635C67.8626 58.6959 68.0781 58.4128 68.3527 58.2057C68.6358 58.0029 68.9569 57.9015 69.3161 57.9015C69.6879 57.9015 70.0133 58.0029 70.2879 58.2057C70.571 58.4086 70.7865 58.6959 70.9386 59.0635C71.0907 59.4311 71.171 59.8621 71.171 60.3564C71.171 60.8508 71.095 61.2818 70.9386 61.6494C70.7865 62.017 70.5668 62.3001 70.2879 62.5072C70.0133 62.71 69.6879 62.8114 69.3161 62.8114C68.9527 62.8114 68.6316 62.71 68.3527 62.5072C68.0781 62.3043 67.8583 62.017 67.702 61.6494C67.5457 61.2818 67.4696 60.8508 67.4696 60.3564ZM71.5809 62.7353L73.7823 60.4156C73.8964 60.2931 73.9935 60.1748 74.0738 60.0607C74.1541 59.9466 74.2175 59.8325 74.2555 59.7226C74.2978 59.6086 74.3147 59.4902 74.3147 59.3635C74.3147 59.2748 74.2978 59.186 74.2597 59.0973C74.2302 59.0086 74.1752 58.924 74.1034 58.8522C74.0358 58.7804 73.9513 58.7212 73.8499 58.6832C73.7485 58.6367 73.6344 58.6156 73.5034 58.6156C73.3217 58.6156 73.1654 58.6579 73.0344 58.7466C72.9034 58.8269 72.802 58.9494 72.7302 59.1057C72.6626 59.2663 72.6288 59.448 72.6288 59.655H71.8344C71.8344 59.317 71.8978 59.0128 72.0245 58.7508C72.1555 58.4846 72.3457 58.2733 72.595 58.1255C72.8485 57.9733 73.1569 57.8931 73.5203 57.8931C73.795 57.8931 74.0358 57.9395 74.2428 58.0283C74.4457 58.1128 74.6147 58.2269 74.7457 58.3663C74.8809 58.5057 74.9823 58.6621 75.0457 58.8269C75.1133 58.9959 75.1471 59.1564 75.1471 59.317C75.1471 59.5663 75.0879 59.8072 74.9654 60.0395C74.8471 60.2719 74.6907 60.479 74.4964 60.6564L73.1442 61.9832H75.2104V62.7311H71.5809V62.7353Z" fill="#F7F6F2"/>
</svg>
